<mxfile host="app.diagrams.net" modified="2023-12-30T09:16:33.795Z" agent="Mozilla/5.0 (Windows NT 10.0; Win64; x64) AppleWebKit/537.36 (KHTML, like Gecko) Chrome/121.0.0.0 Safari/537.36 Edg/121.0.0.0" etag="kd5tSOk_Iaks1LLkk5BP" version="22.1.15" type="device" pages="5">
  <diagram id="Uz_kpe7z58q1DpFeZHpy" name="进程结构">
    <mxGraphModel dx="1434" dy="827" grid="1" gridSize="10" guides="1" tooltips="1" connect="1" arrows="1" fold="1" page="1" pageScale="1" pageWidth="850" pageHeight="1100" math="0" shadow="0">
      <root>
        <mxCell id="0" />
        <mxCell id="1" parent="0" />
        <mxCell id="2" value="程序" style="swimlane;fontStyle=0;childLayout=stackLayout;horizontal=1;startSize=30;horizontalStack=0;resizeParent=1;resizeParentMax=0;resizeLast=0;collapsible=1;marginBottom=0;whiteSpace=wrap;html=1;" parent="1" vertex="1">
          <mxGeometry x="600" y="60" width="140" height="120" as="geometry" />
        </mxCell>
        <mxCell id="3" value="程序名" style="text;strokeColor=#d79b00;fillColor=#ffe6cc;align=left;verticalAlign=middle;spacingLeft=4;spacingRight=4;overflow=hidden;points=[[0,0.5],[1,0.5]];portConstraint=eastwest;rotatable=0;whiteSpace=wrap;html=1;" parent="2" vertex="1">
          <mxGeometry y="30" width="140" height="30" as="geometry" />
        </mxCell>
        <mxCell id="4" value="运行时间" style="text;strokeColor=#d79b00;fillColor=#ffe6cc;align=left;verticalAlign=middle;spacingLeft=4;spacingRight=4;overflow=hidden;points=[[0,0.5],[1,0.5]];portConstraint=eastwest;rotatable=0;whiteSpace=wrap;html=1;" parent="2" vertex="1">
          <mxGeometry y="60" width="140" height="30" as="geometry" />
        </mxCell>
        <mxCell id="5" value="优先级" style="text;strokeColor=#d79b00;fillColor=#ffe6cc;align=left;verticalAlign=middle;spacingLeft=4;spacingRight=4;overflow=hidden;points=[[0,0.5],[1,0.5]];portConstraint=eastwest;rotatable=0;whiteSpace=wrap;html=1;" parent="2" vertex="1">
          <mxGeometry y="90" width="140" height="30" as="geometry" />
        </mxCell>
        <mxCell id="_c8ItqxAKlNbQwqlbpvU-17" value="进程队列" style="swimlane;fontStyle=0;childLayout=stackLayout;horizontal=1;startSize=30;horizontalStack=0;resizeParent=1;resizeParentMax=0;resizeLast=0;collapsible=1;marginBottom=0;whiteSpace=wrap;html=1;" parent="1" vertex="1">
          <mxGeometry x="440" y="60" width="140" height="180" as="geometry">
            <mxRectangle x="590" y="120" width="90" height="30" as="alternateBounds" />
          </mxGeometry>
        </mxCell>
        <mxCell id="_c8ItqxAKlNbQwqlbpvU-18" value="进程 1" style="text;strokeColor=#d6b656;fillColor=#fff2cc;align=left;verticalAlign=middle;spacingLeft=4;spacingRight=4;overflow=hidden;points=[[0,0.5],[1,0.5]];portConstraint=eastwest;rotatable=0;whiteSpace=wrap;html=1;" parent="_c8ItqxAKlNbQwqlbpvU-17" vertex="1">
          <mxGeometry y="30" width="140" height="30" as="geometry" />
        </mxCell>
        <mxCell id="_c8ItqxAKlNbQwqlbpvU-19" value="进程 2" style="text;strokeColor=#b85450;fillColor=#f8cecc;align=left;verticalAlign=middle;spacingLeft=4;spacingRight=4;overflow=hidden;points=[[0,0.5],[1,0.5]];portConstraint=eastwest;rotatable=0;whiteSpace=wrap;html=1;" parent="_c8ItqxAKlNbQwqlbpvU-17" vertex="1">
          <mxGeometry y="60" width="140" height="30" as="geometry" />
        </mxCell>
        <mxCell id="_c8ItqxAKlNbQwqlbpvU-20" value="进程 3" style="text;strokeColor=#9673a6;fillColor=#e1d5e7;align=left;verticalAlign=middle;spacingLeft=4;spacingRight=4;overflow=hidden;points=[[0,0.5],[1,0.5]];portConstraint=eastwest;rotatable=0;whiteSpace=wrap;html=1;" parent="_c8ItqxAKlNbQwqlbpvU-17" vertex="1">
          <mxGeometry y="90" width="140" height="30" as="geometry" />
        </mxCell>
        <mxCell id="fHPmjY0lbh3OKCkGhoS--9" value="进程 4" style="text;strokeColor=#82b366;fillColor=#d5e8d4;align=left;verticalAlign=middle;spacingLeft=4;spacingRight=4;overflow=hidden;points=[[0,0.5],[1,0.5]];portConstraint=eastwest;rotatable=0;whiteSpace=wrap;html=1;" parent="_c8ItqxAKlNbQwqlbpvU-17" vertex="1">
          <mxGeometry y="120" width="140" height="30" as="geometry" />
        </mxCell>
        <mxCell id="_c8ItqxAKlNbQwqlbpvU-21" value="……" style="text;strokeColor=none;fillColor=none;align=left;verticalAlign=middle;spacingLeft=4;spacingRight=4;overflow=hidden;points=[[0,0.5],[1,0.5]];portConstraint=eastwest;rotatable=0;whiteSpace=wrap;html=1;" parent="_c8ItqxAKlNbQwqlbpvU-17" vertex="1">
          <mxGeometry y="150" width="140" height="30" as="geometry" />
        </mxCell>
        <mxCell id="pZxpUpyZffvHtqf1EwQb-15" style="edgeStyle=orthogonalEdgeStyle;rounded=0;orthogonalLoop=1;jettySize=auto;html=1;exitX=1;exitY=0.5;exitDx=0;exitDy=0;" parent="1" source="-lbcMISYUMKxzrige9w_-11" target="_c8ItqxAKlNbQwqlbpvU-17" edge="1">
          <mxGeometry relative="1" as="geometry" />
        </mxCell>
        <mxCell id="-lbcMISYUMKxzrige9w_-11" value="进程" style="swimlane;whiteSpace=wrap;html=1;" parent="1" vertex="1">
          <mxGeometry x="220" y="60" width="180" height="380" as="geometry" />
        </mxCell>
        <mxCell id="8" value="进程属性" style="swimlane;fontStyle=0;childLayout=stackLayout;horizontal=1;startSize=30;horizontalStack=0;resizeParent=1;resizeParentMax=0;resizeLast=0;collapsible=1;marginBottom=0;whiteSpace=wrap;html=1;" parent="-lbcMISYUMKxzrige9w_-11" vertex="1">
          <mxGeometry x="20" y="195" width="140" height="150" as="geometry">
            <mxRectangle x="20" y="195" width="60" height="30" as="alternateBounds" />
          </mxGeometry>
        </mxCell>
        <mxCell id="iwzojKMiQDICovEa25Xd-11" value="进程ID" style="text;align=left;verticalAlign=middle;spacingLeft=4;spacingRight=4;overflow=hidden;points=[[0,0.5],[1,0.5]];portConstraint=eastwest;rotatable=0;whiteSpace=wrap;html=1;" parent="8" vertex="1">
          <mxGeometry y="30" width="140" height="30" as="geometry" />
        </mxCell>
        <mxCell id="_c8ItqxAKlNbQwqlbpvU-12" value="到达时间" style="text;strokeColor=none;fillColor=none;align=left;verticalAlign=middle;spacingLeft=4;spacingRight=4;overflow=hidden;points=[[0,0.5],[1,0.5]];portConstraint=eastwest;rotatable=0;whiteSpace=wrap;html=1;" parent="8" vertex="1">
          <mxGeometry y="60" width="140" height="30" as="geometry" />
        </mxCell>
        <mxCell id="_c8ItqxAKlNbQwqlbpvU-11" value="运行状态" style="text;strokeColor=none;fillColor=none;align=left;verticalAlign=middle;spacingLeft=4;spacingRight=4;overflow=hidden;points=[[0,0.5],[1,0.5]];portConstraint=eastwest;rotatable=0;whiteSpace=wrap;html=1;" parent="8" vertex="1">
          <mxGeometry y="90" width="140" height="30" as="geometry" />
        </mxCell>
        <mxCell id="_c8ItqxAKlNbQwqlbpvU-13" value="完成时间" style="text;strokeColor=none;fillColor=none;align=left;verticalAlign=middle;spacingLeft=4;spacingRight=4;overflow=hidden;points=[[0,0.5],[1,0.5]];portConstraint=eastwest;rotatable=0;whiteSpace=wrap;html=1;" parent="8" vertex="1">
          <mxGeometry y="120" width="140" height="30" as="geometry" />
        </mxCell>
        <mxCell id="pZxpUpyZffvHtqf1EwQb-11" value="程序" style="swimlane;fontStyle=0;childLayout=stackLayout;horizontal=1;startSize=30;horizontalStack=0;resizeParent=1;resizeParentMax=0;resizeLast=0;collapsible=1;marginBottom=0;whiteSpace=wrap;html=1;" parent="-lbcMISYUMKxzrige9w_-11" vertex="1">
          <mxGeometry x="20" y="40" width="140" height="120" as="geometry">
            <mxRectangle x="30" y="40" width="60" height="30" as="alternateBounds" />
          </mxGeometry>
        </mxCell>
        <mxCell id="pZxpUpyZffvHtqf1EwQb-12" value="程序名" style="text;strokeColor=#d79b00;fillColor=#ffe6cc;align=left;verticalAlign=middle;spacingLeft=4;spacingRight=4;overflow=hidden;points=[[0,0.5],[1,0.5]];portConstraint=eastwest;rotatable=0;whiteSpace=wrap;html=1;" parent="pZxpUpyZffvHtqf1EwQb-11" vertex="1">
          <mxGeometry y="30" width="140" height="30" as="geometry" />
        </mxCell>
        <mxCell id="pZxpUpyZffvHtqf1EwQb-13" value="运行时间" style="text;strokeColor=#d79b00;fillColor=#ffe6cc;align=left;verticalAlign=middle;spacingLeft=4;spacingRight=4;overflow=hidden;points=[[0,0.5],[1,0.5]];portConstraint=eastwest;rotatable=0;whiteSpace=wrap;html=1;" parent="pZxpUpyZffvHtqf1EwQb-11" vertex="1">
          <mxGeometry y="60" width="140" height="30" as="geometry" />
        </mxCell>
        <mxCell id="pZxpUpyZffvHtqf1EwQb-14" value="优先级" style="text;strokeColor=#d79b00;fillColor=#ffe6cc;align=left;verticalAlign=middle;spacingLeft=4;spacingRight=4;overflow=hidden;points=[[0,0.5],[1,0.5]];portConstraint=eastwest;rotatable=0;whiteSpace=wrap;html=1;" parent="pZxpUpyZffvHtqf1EwQb-11" vertex="1">
          <mxGeometry y="90" width="140" height="30" as="geometry" />
        </mxCell>
        <mxCell id="KFFzFraqpmiOKfjzLaNa-8" value="记录" style="swimlane;fontStyle=0;childLayout=stackLayout;horizontal=1;startSize=30;horizontalStack=0;resizeParent=1;resizeParentMax=0;resizeLast=0;collapsible=1;marginBottom=0;whiteSpace=wrap;html=1;fillColor=#d5e8d4;strokeColor=#82b366;" vertex="1" parent="1">
          <mxGeometry x="440" y="290" width="140" height="150" as="geometry" />
        </mxCell>
        <mxCell id="KFFzFraqpmiOKfjzLaNa-10" value="开始时间" style="text;align=left;verticalAlign=middle;spacingLeft=4;spacingRight=4;overflow=hidden;points=[[0,0.5],[1,0.5]];portConstraint=eastwest;rotatable=0;whiteSpace=wrap;html=1;" vertex="1" parent="KFFzFraqpmiOKfjzLaNa-8">
          <mxGeometry y="30" width="140" height="30" as="geometry" />
        </mxCell>
        <mxCell id="KFFzFraqpmiOKfjzLaNa-11" value="结束时间" style="text;align=left;verticalAlign=middle;spacingLeft=4;spacingRight=4;overflow=hidden;points=[[0,0.5],[1,0.5]];portConstraint=eastwest;rotatable=0;whiteSpace=wrap;html=1;" vertex="1" parent="KFFzFraqpmiOKfjzLaNa-8">
          <mxGeometry y="60" width="140" height="30" as="geometry" />
        </mxCell>
        <mxCell id="KFFzFraqpmiOKfjzLaNa-12" value="进程是否完成" style="text;align=left;verticalAlign=middle;spacingLeft=4;spacingRight=4;overflow=hidden;points=[[0,0.5],[1,0.5]];portConstraint=eastwest;rotatable=0;whiteSpace=wrap;html=1;" vertex="1" parent="KFFzFraqpmiOKfjzLaNa-8">
          <mxGeometry y="90" width="140" height="30" as="geometry" />
        </mxCell>
        <mxCell id="KFFzFraqpmiOKfjzLaNa-9" value="&lt;del&gt;进程&lt;/del&gt;" style="text;align=left;verticalAlign=middle;spacingLeft=4;spacingRight=4;overflow=hidden;points=[[0,0.5],[1,0.5]];portConstraint=eastwest;rotatable=0;whiteSpace=wrap;html=1;" vertex="1" parent="KFFzFraqpmiOKfjzLaNa-8">
          <mxGeometry y="120" width="140" height="30" as="geometry" />
        </mxCell>
        <mxCell id="KFFzFraqpmiOKfjzLaNa-13" value="进程总结" style="swimlane;fontStyle=0;childLayout=stackLayout;horizontal=1;startSize=30;horizontalStack=0;resizeParent=1;resizeParentMax=0;resizeLast=0;collapsible=1;marginBottom=0;whiteSpace=wrap;html=1;fillColor=#d5e8d4;strokeColor=#82b366;" vertex="1" parent="1">
          <mxGeometry x="600" y="200" width="140" height="240" as="geometry" />
        </mxCell>
        <mxCell id="KFFzFraqpmiOKfjzLaNa-14" value="进程ID" style="text;align=left;verticalAlign=middle;spacingLeft=4;spacingRight=4;overflow=hidden;points=[[0,0.5],[1,0.5]];portConstraint=eastwest;rotatable=0;whiteSpace=wrap;html=1;" vertex="1" parent="KFFzFraqpmiOKfjzLaNa-13">
          <mxGeometry y="30" width="140" height="30" as="geometry" />
        </mxCell>
        <mxCell id="KFFzFraqpmiOKfjzLaNa-15" value="进程名" style="text;align=left;verticalAlign=middle;spacingLeft=4;spacingRight=4;overflow=hidden;points=[[0,0.5],[1,0.5]];portConstraint=eastwest;rotatable=0;whiteSpace=wrap;html=1;" vertex="1" parent="KFFzFraqpmiOKfjzLaNa-13">
          <mxGeometry y="60" width="140" height="30" as="geometry" />
        </mxCell>
        <mxCell id="KFFzFraqpmiOKfjzLaNa-16" value="到达时间" style="text;align=left;verticalAlign=middle;spacingLeft=4;spacingRight=4;overflow=hidden;points=[[0,0.5],[1,0.5]];portConstraint=eastwest;rotatable=0;whiteSpace=wrap;html=1;" vertex="1" parent="KFFzFraqpmiOKfjzLaNa-13">
          <mxGeometry y="90" width="140" height="30" as="geometry" />
        </mxCell>
        <mxCell id="KFFzFraqpmiOKfjzLaNa-17" value="开始时间" style="text;align=left;verticalAlign=middle;spacingLeft=4;spacingRight=4;overflow=hidden;points=[[0,0.5],[1,0.5]];portConstraint=eastwest;rotatable=0;whiteSpace=wrap;html=1;" vertex="1" parent="KFFzFraqpmiOKfjzLaNa-13">
          <mxGeometry y="120" width="140" height="30" as="geometry" />
        </mxCell>
        <mxCell id="KFFzFraqpmiOKfjzLaNa-20" value="结束时间" style="text;align=left;verticalAlign=middle;spacingLeft=4;spacingRight=4;overflow=hidden;points=[[0,0.5],[1,0.5]];portConstraint=eastwest;rotatable=0;whiteSpace=wrap;html=1;" vertex="1" parent="KFFzFraqpmiOKfjzLaNa-13">
          <mxGeometry y="150" width="140" height="30" as="geometry" />
        </mxCell>
        <mxCell id="KFFzFraqpmiOKfjzLaNa-19" value="周转时间" style="text;align=left;verticalAlign=middle;spacingLeft=4;spacingRight=4;overflow=hidden;points=[[0,0.5],[1,0.5]];portConstraint=eastwest;rotatable=0;whiteSpace=wrap;html=1;" vertex="1" parent="KFFzFraqpmiOKfjzLaNa-13">
          <mxGeometry y="180" width="140" height="30" as="geometry" />
        </mxCell>
        <mxCell id="KFFzFraqpmiOKfjzLaNa-18" value="带权周转时间" style="text;align=left;verticalAlign=middle;spacingLeft=4;spacingRight=4;overflow=hidden;points=[[0,0.5],[1,0.5]];portConstraint=eastwest;rotatable=0;whiteSpace=wrap;html=1;" vertex="1" parent="KFFzFraqpmiOKfjzLaNa-13">
          <mxGeometry y="210" width="140" height="30" as="geometry" />
        </mxCell>
      </root>
    </mxGraphModel>
  </diagram>
  <diagram id="fO6OHq5Do3GgubKC6U9x" name="调度系统">
    <mxGraphModel dx="882" dy="499" grid="1" gridSize="10" guides="1" tooltips="1" connect="1" arrows="1" fold="1" page="1" pageScale="1" pageWidth="827" pageHeight="1169" math="0" shadow="0">
      <root>
        <mxCell id="0" />
        <mxCell id="1" parent="0" />
        <mxCell id="b4FMR7INQPbGE0lWHYMo-12" value="调度系统" style="swimlane;whiteSpace=wrap;html=1;" parent="1" vertex="1">
          <mxGeometry x="80" y="60" width="520" height="260" as="geometry" />
        </mxCell>
        <mxCell id="tCl3xaztjeyGL0PsCgSG-1" value="进程队列" style="swimlane;fontStyle=0;childLayout=stackLayout;horizontal=1;startSize=30;horizontalStack=0;resizeParent=1;resizeParentMax=0;resizeLast=0;collapsible=1;marginBottom=0;whiteSpace=wrap;html=1;" parent="b4FMR7INQPbGE0lWHYMo-12" vertex="1">
          <mxGeometry x="30" y="75" width="140" height="150" as="geometry">
            <mxRectangle x="590" y="120" width="90" height="30" as="alternateBounds" />
          </mxGeometry>
        </mxCell>
        <mxCell id="tCl3xaztjeyGL0PsCgSG-2" value="进程 1" style="text;strokeColor=#d6b656;fillColor=#fff2cc;align=left;verticalAlign=middle;spacingLeft=4;spacingRight=4;overflow=hidden;points=[[0,0.5],[1,0.5]];portConstraint=eastwest;rotatable=0;whiteSpace=wrap;html=1;" parent="tCl3xaztjeyGL0PsCgSG-1" vertex="1">
          <mxGeometry y="30" width="140" height="30" as="geometry" />
        </mxCell>
        <mxCell id="tCl3xaztjeyGL0PsCgSG-3" value="进程 2" style="text;strokeColor=#b85450;fillColor=#f8cecc;align=left;verticalAlign=middle;spacingLeft=4;spacingRight=4;overflow=hidden;points=[[0,0.5],[1,0.5]];portConstraint=eastwest;rotatable=0;whiteSpace=wrap;html=1;" parent="tCl3xaztjeyGL0PsCgSG-1" vertex="1">
          <mxGeometry y="60" width="140" height="30" as="geometry" />
        </mxCell>
        <mxCell id="tCl3xaztjeyGL0PsCgSG-4" value="进程 3" style="text;strokeColor=#9673a6;fillColor=#e1d5e7;align=left;verticalAlign=middle;spacingLeft=4;spacingRight=4;overflow=hidden;points=[[0,0.5],[1,0.5]];portConstraint=eastwest;rotatable=0;whiteSpace=wrap;html=1;" parent="tCl3xaztjeyGL0PsCgSG-1" vertex="1">
          <mxGeometry y="90" width="140" height="30" as="geometry" />
        </mxCell>
        <mxCell id="tCl3xaztjeyGL0PsCgSG-5" value="……" style="text;strokeColor=none;fillColor=none;align=left;verticalAlign=middle;spacingLeft=4;spacingRight=4;overflow=hidden;points=[[0,0.5],[1,0.5]];portConstraint=eastwest;rotatable=0;whiteSpace=wrap;html=1;" parent="tCl3xaztjeyGL0PsCgSG-1" vertex="1">
          <mxGeometry y="120" width="140" height="30" as="geometry" />
        </mxCell>
        <mxCell id="tCl3xaztjeyGL0PsCgSG-12" value="队列调度" style="swimlane;fontStyle=0;childLayout=stackLayout;horizontal=1;startSize=30;horizontalStack=0;resizeParent=1;resizeParentMax=0;resizeLast=0;collapsible=1;marginBottom=0;whiteSpace=wrap;html=1;" parent="b4FMR7INQPbGE0lWHYMo-12" vertex="1">
          <mxGeometry x="310" y="45" width="140" height="180" as="geometry" />
        </mxCell>
        <mxCell id="tCl3xaztjeyGL0PsCgSG-13" value="FCFS 先来先服务" style="text;strokeColor=none;fillColor=none;align=left;verticalAlign=middle;spacingLeft=4;spacingRight=4;overflow=hidden;points=[[0,0.5],[1,0.5]];portConstraint=eastwest;rotatable=0;whiteSpace=wrap;html=1;" parent="tCl3xaztjeyGL0PsCgSG-12" vertex="1">
          <mxGeometry y="30" width="140" height="30" as="geometry" />
        </mxCell>
        <mxCell id="tCl3xaztjeyGL0PsCgSG-14" value="SJF 短作业优先" style="text;strokeColor=none;fillColor=none;align=left;verticalAlign=middle;spacingLeft=4;spacingRight=4;overflow=hidden;points=[[0,0.5],[1,0.5]];portConstraint=eastwest;rotatable=0;whiteSpace=wrap;html=1;" parent="tCl3xaztjeyGL0PsCgSG-12" vertex="1">
          <mxGeometry y="60" width="140" height="30" as="geometry" />
        </mxCell>
        <mxCell id="tCl3xaztjeyGL0PsCgSG-15" value="PRIORITY&amp;nbsp; 优先级" style="text;strokeColor=none;fillColor=none;align=left;verticalAlign=middle;spacingLeft=4;spacingRight=4;overflow=hidden;points=[[0,0.5],[1,0.5]];portConstraint=eastwest;rotatable=0;whiteSpace=wrap;html=1;" parent="tCl3xaztjeyGL0PsCgSG-12" vertex="1">
          <mxGeometry y="90" width="140" height="30" as="geometry" />
        </mxCell>
        <mxCell id="I02Q2buFYvC-oGJ8rQny-1" value="SAT 最短剩余时间" style="text;strokeColor=none;fillColor=none;align=left;verticalAlign=middle;spacingLeft=4;spacingRight=4;overflow=hidden;points=[[0,0.5],[1,0.5]];portConstraint=eastwest;rotatable=0;whiteSpace=wrap;html=1;" parent="tCl3xaztjeyGL0PsCgSG-12" vertex="1">
          <mxGeometry y="120" width="140" height="30" as="geometry" />
        </mxCell>
        <mxCell id="I02Q2buFYvC-oGJ8rQny-2" value="HRRN 高响应比优先" style="text;strokeColor=none;fillColor=none;align=left;verticalAlign=middle;spacingLeft=4;spacingRight=4;overflow=hidden;points=[[0,0.5],[1,0.5]];portConstraint=eastwest;rotatable=0;whiteSpace=wrap;html=1;" parent="tCl3xaztjeyGL0PsCgSG-12" vertex="1">
          <mxGeometry y="150" width="140" height="30" as="geometry" />
        </mxCell>
        <mxCell id="I02Q2buFYvC-oGJ8rQny-3" style="edgeStyle=orthogonalEdgeStyle;rounded=0;orthogonalLoop=1;jettySize=auto;html=1;exitX=0;exitY=0.5;exitDx=0;exitDy=0;entryX=1;entryY=0.5;entryDx=0;entryDy=0;" parent="b4FMR7INQPbGE0lWHYMo-12" source="tCl3xaztjeyGL0PsCgSG-15" target="tCl3xaztjeyGL0PsCgSG-1" edge="1">
          <mxGeometry relative="1" as="geometry" />
        </mxCell>
        <mxCell id="I02Q2buFYvC-oGJ8rQny-4" value="&lt;font style=&quot;font-size: 18px;&quot;&gt;队列排序&lt;/font&gt;" style="edgeLabel;html=1;align=center;verticalAlign=middle;resizable=0;points=[];" parent="I02Q2buFYvC-oGJ8rQny-3" vertex="1" connectable="0">
          <mxGeometry x="0.0244" y="4" relative="1" as="geometry">
            <mxPoint as="offset" />
          </mxGeometry>
        </mxCell>
      </root>
    </mxGraphModel>
  </diagram>
  <diagram id="V5OiPH5pjO73XXO6jtwh" name="运行系统">
    <mxGraphModel dx="642" dy="499" grid="1" gridSize="10" guides="1" tooltips="1" connect="1" arrows="1" fold="1" page="1" pageScale="1" pageWidth="827" pageHeight="1169" math="0" shadow="0">
      <root>
        <mxCell id="0" />
        <mxCell id="1" parent="0" />
        <mxCell id="J5ohM9p4LgpnrRQaDPm8-7" value="运行系统" style="swimlane;whiteSpace=wrap;html=1;" parent="1" vertex="1">
          <mxGeometry x="40" y="40" width="520" height="780" as="geometry" />
        </mxCell>
        <mxCell id="J5ohM9p4LgpnrRQaDPm8-1" value="执行队列（可限制大小）" style="swimlane;fontStyle=0;childLayout=stackLayout;horizontal=1;startSize=30;horizontalStack=0;resizeParent=1;resizeParentMax=0;resizeLast=0;collapsible=1;marginBottom=0;whiteSpace=wrap;html=1;" parent="J5ohM9p4LgpnrRQaDPm8-7" vertex="1">
          <mxGeometry x="20" y="140" width="180" height="150" as="geometry">
            <mxRectangle x="20" y="140" width="90" height="30" as="alternateBounds" />
          </mxGeometry>
        </mxCell>
        <mxCell id="J5ohM9p4LgpnrRQaDPm8-2" value="进程 1" style="text;strokeColor=#d6b656;fillColor=#fff2cc;align=left;verticalAlign=middle;spacingLeft=4;spacingRight=4;overflow=hidden;points=[[0,0.5],[1,0.5]];portConstraint=eastwest;rotatable=0;whiteSpace=wrap;html=1;" parent="J5ohM9p4LgpnrRQaDPm8-1" vertex="1">
          <mxGeometry y="30" width="180" height="30" as="geometry" />
        </mxCell>
        <mxCell id="J5ohM9p4LgpnrRQaDPm8-3" value="进程 2" style="text;strokeColor=#b85450;fillColor=#f8cecc;align=left;verticalAlign=middle;spacingLeft=4;spacingRight=4;overflow=hidden;points=[[0,0.5],[1,0.5]];portConstraint=eastwest;rotatable=0;whiteSpace=wrap;html=1;" parent="J5ohM9p4LgpnrRQaDPm8-1" vertex="1">
          <mxGeometry y="60" width="180" height="30" as="geometry" />
        </mxCell>
        <mxCell id="J5ohM9p4LgpnrRQaDPm8-4" value="进程 3" style="text;strokeColor=#9673a6;fillColor=#e1d5e7;align=left;verticalAlign=middle;spacingLeft=4;spacingRight=4;overflow=hidden;points=[[0,0.5],[1,0.5]];portConstraint=eastwest;rotatable=0;whiteSpace=wrap;html=1;" parent="J5ohM9p4LgpnrRQaDPm8-1" vertex="1">
          <mxGeometry y="90" width="180" height="30" as="geometry" />
        </mxCell>
        <mxCell id="J5ohM9p4LgpnrRQaDPm8-5" value="……" style="text;strokeColor=none;fillColor=none;align=left;verticalAlign=middle;spacingLeft=4;spacingRight=4;overflow=hidden;points=[[0,0.5],[1,0.5]];portConstraint=eastwest;rotatable=0;whiteSpace=wrap;html=1;" parent="J5ohM9p4LgpnrRQaDPm8-1" vertex="1">
          <mxGeometry y="120" width="180" height="30" as="geometry" />
        </mxCell>
        <mxCell id="Euu-Ed-Jc4jTll4LcgzE-8" style="edgeStyle=orthogonalEdgeStyle;rounded=0;orthogonalLoop=1;jettySize=auto;html=1;exitX=0;exitY=0.5;exitDx=0;exitDy=0;entryX=1;entryY=0.5;entryDx=0;entryDy=0;" parent="J5ohM9p4LgpnrRQaDPm8-7" source="f4ODLPXCI00rqDPPaSGf-1" target="J5ohM9p4LgpnrRQaDPm8-1" edge="1">
          <mxGeometry relative="1" as="geometry" />
        </mxCell>
        <mxCell id="f4ODLPXCI00rqDPPaSGf-1" value="就绪队列" style="swimlane;fontStyle=0;childLayout=stackLayout;horizontal=1;startSize=30;horizontalStack=0;resizeParent=1;resizeParentMax=0;resizeLast=0;collapsible=1;marginBottom=0;whiteSpace=wrap;html=1;" parent="J5ohM9p4LgpnrRQaDPm8-7" vertex="1">
          <mxGeometry x="260" y="140" width="100" height="150" as="geometry">
            <mxRectangle x="260" y="140" width="90" height="30" as="alternateBounds" />
          </mxGeometry>
        </mxCell>
        <mxCell id="f4ODLPXCI00rqDPPaSGf-2" value="进程 1" style="text;strokeColor=#d6b656;fillColor=#fff2cc;align=left;verticalAlign=middle;spacingLeft=4;spacingRight=4;overflow=hidden;points=[[0,0.5],[1,0.5]];portConstraint=eastwest;rotatable=0;whiteSpace=wrap;html=1;" parent="f4ODLPXCI00rqDPPaSGf-1" vertex="1">
          <mxGeometry y="30" width="100" height="30" as="geometry" />
        </mxCell>
        <mxCell id="f4ODLPXCI00rqDPPaSGf-3" value="进程 2" style="text;strokeColor=#b85450;fillColor=#f8cecc;align=left;verticalAlign=middle;spacingLeft=4;spacingRight=4;overflow=hidden;points=[[0,0.5],[1,0.5]];portConstraint=eastwest;rotatable=0;whiteSpace=wrap;html=1;" parent="f4ODLPXCI00rqDPPaSGf-1" vertex="1">
          <mxGeometry y="60" width="100" height="30" as="geometry" />
        </mxCell>
        <mxCell id="f4ODLPXCI00rqDPPaSGf-4" value="进程 3" style="text;strokeColor=#9673a6;fillColor=#e1d5e7;align=left;verticalAlign=middle;spacingLeft=4;spacingRight=4;overflow=hidden;points=[[0,0.5],[1,0.5]];portConstraint=eastwest;rotatable=0;whiteSpace=wrap;html=1;" parent="f4ODLPXCI00rqDPPaSGf-1" vertex="1">
          <mxGeometry y="90" width="100" height="30" as="geometry" />
        </mxCell>
        <mxCell id="f4ODLPXCI00rqDPPaSGf-5" value="……" style="text;strokeColor=none;fillColor=none;align=left;verticalAlign=middle;spacingLeft=4;spacingRight=4;overflow=hidden;points=[[0,0.5],[1,0.5]];portConstraint=eastwest;rotatable=0;whiteSpace=wrap;html=1;" parent="f4ODLPXCI00rqDPPaSGf-1" vertex="1">
          <mxGeometry y="120" width="100" height="30" as="geometry" />
        </mxCell>
        <mxCell id="MBCmIztiUeMVBW8a4BfW-12" value="变量" style="swimlane;whiteSpace=wrap;html=1;" parent="J5ohM9p4LgpnrRQaDPm8-7" vertex="1">
          <mxGeometry x="20" y="40" width="480" height="80" as="geometry" />
        </mxCell>
        <mxCell id="MBCmIztiUeMVBW8a4BfW-7" value="运行时间" style="rounded=0;whiteSpace=wrap;html=1;" parent="MBCmIztiUeMVBW8a4BfW-12" vertex="1">
          <mxGeometry x="20" y="40" width="120" height="30" as="geometry" />
        </mxCell>
        <mxCell id="J5ohM9p4LgpnrRQaDPm8-8" value="是否为时间片流转" style="rounded=0;whiteSpace=wrap;html=1;" parent="MBCmIztiUeMVBW8a4BfW-12" vertex="1">
          <mxGeometry x="180" y="40" width="120" height="30" as="geometry" />
        </mxCell>
        <mxCell id="kkPOxXqrfUEkcBA6OhFC-18" value="日志队列" style="rounded=0;whiteSpace=wrap;html=1;" parent="MBCmIztiUeMVBW8a4BfW-12" vertex="1">
          <mxGeometry x="340" y="40" width="120" height="30" as="geometry" />
        </mxCell>
        <mxCell id="MBCmIztiUeMVBW8a4BfW-13" value="方法" style="swimlane;whiteSpace=wrap;html=1;" parent="J5ohM9p4LgpnrRQaDPm8-7" vertex="1">
          <mxGeometry x="20" y="490" width="480" height="270" as="geometry" />
        </mxCell>
        <mxCell id="MBCmIztiUeMVBW8a4BfW-8" value="运行进程" style="swimlane;fontStyle=0;childLayout=stackLayout;horizontal=1;startSize=30;horizontalStack=0;resizeParent=1;resizeParentMax=0;resizeLast=0;collapsible=1;marginBottom=0;whiteSpace=wrap;html=1;fillColor=#ffe6cc;strokeColor=#d79b00;" parent="MBCmIztiUeMVBW8a4BfW-13" vertex="1">
          <mxGeometry x="20" y="40" width="140" height="210" as="geometry">
            <mxRectangle x="20" y="40" width="140" height="30" as="alternateBounds" />
          </mxGeometry>
        </mxCell>
        <mxCell id="UPHkkMxrAj3sCYQeLRSv-1" value="手动指定执行时间" style="text;strokeColor=#d79b00;fillColor=#ffe6cc;align=left;verticalAlign=middle;spacingLeft=4;spacingRight=4;overflow=hidden;points=[[0,0.5],[1,0.5]];portConstraint=eastwest;rotatable=0;whiteSpace=wrap;html=1;" parent="MBCmIztiUeMVBW8a4BfW-8" vertex="1">
          <mxGeometry y="30" width="140" height="30" as="geometry" />
        </mxCell>
        <mxCell id="MBCmIztiUeMVBW8a4BfW-9" value="判断运行时间" style="text;strokeColor=#d79b00;fillColor=#ffe6cc;align=left;verticalAlign=middle;spacingLeft=4;spacingRight=4;overflow=hidden;points=[[0,0.5],[1,0.5]];portConstraint=eastwest;rotatable=0;whiteSpace=wrap;html=1;" parent="MBCmIztiUeMVBW8a4BfW-8" vertex="1">
          <mxGeometry y="60" width="140" height="30" as="geometry" />
        </mxCell>
        <mxCell id="MBCmIztiUeMVBW8a4BfW-10" value="判断是否（提前）完成&lt;br&gt;如果是,则标记进程已完成移出队列" style="text;strokeColor=#d79b00;fillColor=#ffe6cc;align=left;verticalAlign=middle;spacingLeft=4;spacingRight=4;overflow=hidden;points=[[0,0.5],[1,0.5]];portConstraint=eastwest;rotatable=0;whiteSpace=wrap;html=1;" parent="MBCmIztiUeMVBW8a4BfW-8" vertex="1">
          <mxGeometry y="90" width="140" height="60" as="geometry" />
        </mxCell>
        <mxCell id="MBCmIztiUeMVBW8a4BfW-11" value="运行核心逻辑" style="text;strokeColor=#d79b00;fillColor=#ffe6cc;align=left;verticalAlign=middle;spacingLeft=4;spacingRight=4;overflow=hidden;points=[[0,0.5],[1,0.5]];portConstraint=eastwest;rotatable=0;whiteSpace=wrap;html=1;" parent="MBCmIztiUeMVBW8a4BfW-8" vertex="1">
          <mxGeometry y="150" width="140" height="30" as="geometry" />
        </mxCell>
        <mxCell id="2zPlzTTeSVe6DdYmtaQh-1" style="text;strokeColor=#d79b00;fillColor=#ffe6cc;align=left;verticalAlign=middle;spacingLeft=4;spacingRight=4;overflow=hidden;points=[[0,0.5],[1,0.5]];portConstraint=eastwest;rotatable=0;whiteSpace=wrap;html=1;" parent="MBCmIztiUeMVBW8a4BfW-8" vertex="1">
          <mxGeometry y="180" width="140" height="30" as="geometry" />
        </mxCell>
        <mxCell id="MBCmIztiUeMVBW8a4BfW-16" value="从程序插入进程" style="rounded=0;whiteSpace=wrap;html=1;" parent="MBCmIztiUeMVBW8a4BfW-13" vertex="1">
          <mxGeometry x="340" y="40" width="120" height="30" as="geometry" />
        </mxCell>
        <mxCell id="MBCmIztiUeMVBW8a4BfW-17" value="移入就绪队列&lt;br&gt;(暂未使用)" style="rounded=0;whiteSpace=wrap;html=1;" parent="MBCmIztiUeMVBW8a4BfW-13" vertex="1">
          <mxGeometry x="340" y="140" width="120" height="30" as="geometry" />
        </mxCell>
        <mxCell id="MBCmIztiUeMVBW8a4BfW-18" value="移出就绪队列" style="rounded=0;whiteSpace=wrap;html=1;" parent="MBCmIztiUeMVBW8a4BfW-13" vertex="1">
          <mxGeometry x="340" y="90" width="120" height="30" as="geometry" />
        </mxCell>
        <mxCell id="2zPlzTTeSVe6DdYmtaQh-6" value="运行核心逻辑" style="swimlane;whiteSpace=wrap;html=1;fillColor=#ffe6cc;strokeColor=#d79b00;" parent="MBCmIztiUeMVBW8a4BfW-13" vertex="1">
          <mxGeometry x="200" y="40" width="110" height="200" as="geometry" />
        </mxCell>
        <mxCell id="2zPlzTTeSVe6DdYmtaQh-13" style="edgeStyle=orthogonalEdgeStyle;rounded=0;orthogonalLoop=1;jettySize=auto;html=1;exitX=0.5;exitY=1;exitDx=0;exitDy=0;entryX=0.5;entryY=0;entryDx=0;entryDy=0;" parent="2zPlzTTeSVe6DdYmtaQh-6" source="2zPlzTTeSVe6DdYmtaQh-14" target="2zPlzTTeSVe6DdYmtaQh-16" edge="1">
          <mxGeometry relative="1" as="geometry" />
        </mxCell>
        <mxCell id="2zPlzTTeSVe6DdYmtaQh-14" value="指定时间" style="rounded=0;whiteSpace=wrap;html=1;fillColor=#ffe6cc;strokeColor=#d79b00;" parent="2zPlzTTeSVe6DdYmtaQh-6" vertex="1">
          <mxGeometry x="15" y="30" width="80" height="25" as="geometry" />
        </mxCell>
        <mxCell id="2zPlzTTeSVe6DdYmtaQh-15" style="edgeStyle=orthogonalEdgeStyle;rounded=0;orthogonalLoop=1;jettySize=auto;html=1;exitX=0.5;exitY=1;exitDx=0;exitDy=0;entryX=0.5;entryY=0;entryDx=0;entryDy=0;" parent="2zPlzTTeSVe6DdYmtaQh-6" source="2zPlzTTeSVe6DdYmtaQh-16" target="2zPlzTTeSVe6DdYmtaQh-17" edge="1">
          <mxGeometry relative="1" as="geometry" />
        </mxCell>
        <mxCell id="2zPlzTTeSVe6DdYmtaQh-16" value="运行进程" style="rounded=0;whiteSpace=wrap;html=1;fillColor=#ffe6cc;strokeColor=#d79b00;" parent="2zPlzTTeSVe6DdYmtaQh-6" vertex="1">
          <mxGeometry x="15" y="80" width="80" height="25" as="geometry" />
        </mxCell>
        <mxCell id="2zPlzTTeSVe6DdYmtaQh-17" value="返回运行完的时间" style="rounded=0;whiteSpace=wrap;html=1;fillColor=#ffe6cc;strokeColor=#d79b00;" parent="2zPlzTTeSVe6DdYmtaQh-6" vertex="1">
          <mxGeometry x="15" y="130" width="80" height="40" as="geometry" />
        </mxCell>
        <mxCell id="2zPlzTTeSVe6DdYmtaQh-18" style="edgeStyle=orthogonalEdgeStyle;rounded=0;orthogonalLoop=1;jettySize=auto;html=1;exitX=1;exitY=0.5;exitDx=0;exitDy=0;entryX=0;entryY=0.75;entryDx=0;entryDy=0;" parent="MBCmIztiUeMVBW8a4BfW-13" source="MBCmIztiUeMVBW8a4BfW-11" target="2zPlzTTeSVe6DdYmtaQh-6" edge="1">
          <mxGeometry relative="1" as="geometry" />
        </mxCell>
        <mxCell id="Euu-Ed-Jc4jTll4LcgzE-9" style="edgeStyle=orthogonalEdgeStyle;rounded=0;orthogonalLoop=1;jettySize=auto;html=1;exitX=0;exitY=0.5;exitDx=0;exitDy=0;entryX=1;entryY=0.5;entryDx=0;entryDy=0;" parent="J5ohM9p4LgpnrRQaDPm8-7" source="Euu-Ed-Jc4jTll4LcgzE-1" target="f4ODLPXCI00rqDPPaSGf-1" edge="1">
          <mxGeometry relative="1" as="geometry" />
        </mxCell>
        <mxCell id="Euu-Ed-Jc4jTll4LcgzE-1" value="队列备份" style="swimlane;fontStyle=0;childLayout=stackLayout;horizontal=1;startSize=30;horizontalStack=0;resizeParent=1;resizeParentMax=0;resizeLast=0;collapsible=1;marginBottom=0;whiteSpace=wrap;html=1;" parent="J5ohM9p4LgpnrRQaDPm8-7" vertex="1">
          <mxGeometry x="400" y="140" width="100" height="150" as="geometry">
            <mxRectangle x="400" y="140" width="90" height="30" as="alternateBounds" />
          </mxGeometry>
        </mxCell>
        <mxCell id="Euu-Ed-Jc4jTll4LcgzE-2" value="进程 1" style="text;strokeColor=#d6b656;fillColor=#fff2cc;align=left;verticalAlign=middle;spacingLeft=4;spacingRight=4;overflow=hidden;points=[[0,0.5],[1,0.5]];portConstraint=eastwest;rotatable=0;whiteSpace=wrap;html=1;" parent="Euu-Ed-Jc4jTll4LcgzE-1" vertex="1">
          <mxGeometry y="30" width="100" height="30" as="geometry" />
        </mxCell>
        <mxCell id="Euu-Ed-Jc4jTll4LcgzE-3" value="进程 2" style="text;strokeColor=#b85450;fillColor=#f8cecc;align=left;verticalAlign=middle;spacingLeft=4;spacingRight=4;overflow=hidden;points=[[0,0.5],[1,0.5]];portConstraint=eastwest;rotatable=0;whiteSpace=wrap;html=1;" parent="Euu-Ed-Jc4jTll4LcgzE-1" vertex="1">
          <mxGeometry y="60" width="100" height="30" as="geometry" />
        </mxCell>
        <mxCell id="Euu-Ed-Jc4jTll4LcgzE-4" value="进程 3" style="text;strokeColor=#9673a6;fillColor=#e1d5e7;align=left;verticalAlign=middle;spacingLeft=4;spacingRight=4;overflow=hidden;points=[[0,0.5],[1,0.5]];portConstraint=eastwest;rotatable=0;whiteSpace=wrap;html=1;" parent="Euu-Ed-Jc4jTll4LcgzE-1" vertex="1">
          <mxGeometry y="90" width="100" height="30" as="geometry" />
        </mxCell>
        <mxCell id="Euu-Ed-Jc4jTll4LcgzE-5" value="……" style="text;strokeColor=none;fillColor=none;align=left;verticalAlign=middle;spacingLeft=4;spacingRight=4;overflow=hidden;points=[[0,0.5],[1,0.5]];portConstraint=eastwest;rotatable=0;whiteSpace=wrap;html=1;" parent="Euu-Ed-Jc4jTll4LcgzE-1" vertex="1">
          <mxGeometry y="120" width="100" height="30" as="geometry" />
        </mxCell>
        <mxCell id="k8-el5EMb1ALUuEPThIl-1" value="记录队列" style="swimlane;fontStyle=0;childLayout=stackLayout;horizontal=1;startSize=30;horizontalStack=0;resizeParent=1;resizeParentMax=0;resizeLast=0;collapsible=1;marginBottom=0;whiteSpace=wrap;html=1;" vertex="1" parent="J5ohM9p4LgpnrRQaDPm8-7">
          <mxGeometry x="20" y="315" width="180" height="150" as="geometry">
            <mxRectangle x="260" y="140" width="90" height="30" as="alternateBounds" />
          </mxGeometry>
        </mxCell>
        <mxCell id="k8-el5EMb1ALUuEPThIl-2" value="记录 1" style="text;strokeColor=#d6b656;fillColor=#fff2cc;align=left;verticalAlign=middle;spacingLeft=4;spacingRight=4;overflow=hidden;points=[[0,0.5],[1,0.5]];portConstraint=eastwest;rotatable=0;whiteSpace=wrap;html=1;" vertex="1" parent="k8-el5EMb1ALUuEPThIl-1">
          <mxGeometry y="30" width="180" height="30" as="geometry" />
        </mxCell>
        <mxCell id="k8-el5EMb1ALUuEPThIl-3" value="记录 2" style="text;strokeColor=#b85450;fillColor=#f8cecc;align=left;verticalAlign=middle;spacingLeft=4;spacingRight=4;overflow=hidden;points=[[0,0.5],[1,0.5]];portConstraint=eastwest;rotatable=0;whiteSpace=wrap;html=1;" vertex="1" parent="k8-el5EMb1ALUuEPThIl-1">
          <mxGeometry y="60" width="180" height="30" as="geometry" />
        </mxCell>
        <mxCell id="k8-el5EMb1ALUuEPThIl-4" value="记录 3" style="text;strokeColor=#9673a6;fillColor=#e1d5e7;align=left;verticalAlign=middle;spacingLeft=4;spacingRight=4;overflow=hidden;points=[[0,0.5],[1,0.5]];portConstraint=eastwest;rotatable=0;whiteSpace=wrap;html=1;" vertex="1" parent="k8-el5EMb1ALUuEPThIl-1">
          <mxGeometry y="90" width="180" height="30" as="geometry" />
        </mxCell>
        <mxCell id="k8-el5EMb1ALUuEPThIl-5" value="……" style="text;strokeColor=none;fillColor=none;align=left;verticalAlign=middle;spacingLeft=4;spacingRight=4;overflow=hidden;points=[[0,0.5],[1,0.5]];portConstraint=eastwest;rotatable=0;whiteSpace=wrap;html=1;" vertex="1" parent="k8-el5EMb1ALUuEPThIl-1">
          <mxGeometry y="120" width="180" height="30" as="geometry" />
        </mxCell>
        <mxCell id="k8-el5EMb1ALUuEPThIl-6" value="进程总结队列" style="swimlane;fontStyle=0;childLayout=stackLayout;horizontal=1;startSize=30;horizontalStack=0;resizeParent=1;resizeParentMax=0;resizeLast=0;collapsible=1;marginBottom=0;whiteSpace=wrap;html=1;" vertex="1" parent="J5ohM9p4LgpnrRQaDPm8-7">
          <mxGeometry x="320" y="315" width="180" height="150" as="geometry">
            <mxRectangle x="260" y="140" width="90" height="30" as="alternateBounds" />
          </mxGeometry>
        </mxCell>
        <mxCell id="k8-el5EMb1ALUuEPThIl-7" value="记录 1" style="text;strokeColor=#d6b656;fillColor=#fff2cc;align=left;verticalAlign=middle;spacingLeft=4;spacingRight=4;overflow=hidden;points=[[0,0.5],[1,0.5]];portConstraint=eastwest;rotatable=0;whiteSpace=wrap;html=1;" vertex="1" parent="k8-el5EMb1ALUuEPThIl-6">
          <mxGeometry y="30" width="180" height="30" as="geometry" />
        </mxCell>
        <mxCell id="k8-el5EMb1ALUuEPThIl-8" value="记录 2" style="text;strokeColor=#b85450;fillColor=#f8cecc;align=left;verticalAlign=middle;spacingLeft=4;spacingRight=4;overflow=hidden;points=[[0,0.5],[1,0.5]];portConstraint=eastwest;rotatable=0;whiteSpace=wrap;html=1;" vertex="1" parent="k8-el5EMb1ALUuEPThIl-6">
          <mxGeometry y="60" width="180" height="30" as="geometry" />
        </mxCell>
        <mxCell id="k8-el5EMb1ALUuEPThIl-9" value="记录 3" style="text;strokeColor=#9673a6;fillColor=#e1d5e7;align=left;verticalAlign=middle;spacingLeft=4;spacingRight=4;overflow=hidden;points=[[0,0.5],[1,0.5]];portConstraint=eastwest;rotatable=0;whiteSpace=wrap;html=1;" vertex="1" parent="k8-el5EMb1ALUuEPThIl-6">
          <mxGeometry y="90" width="180" height="30" as="geometry" />
        </mxCell>
        <mxCell id="k8-el5EMb1ALUuEPThIl-10" value="……" style="text;strokeColor=none;fillColor=none;align=left;verticalAlign=middle;spacingLeft=4;spacingRight=4;overflow=hidden;points=[[0,0.5],[1,0.5]];portConstraint=eastwest;rotatable=0;whiteSpace=wrap;html=1;" vertex="1" parent="k8-el5EMb1ALUuEPThIl-6">
          <mxGeometry y="120" width="180" height="30" as="geometry" />
        </mxCell>
        <mxCell id="mrzcO0mmfcUNfrwrGDRM-1" value="运行中进程" style="swimlane;whiteSpace=wrap;html=1;" parent="1" vertex="1">
          <mxGeometry x="690" y="40" width="180" height="490" as="geometry" />
        </mxCell>
        <mxCell id="mrzcO0mmfcUNfrwrGDRM-2" value="进程" style="swimlane;fontStyle=0;childLayout=stackLayout;horizontal=1;startSize=30;horizontalStack=0;resizeParent=1;resizeParentMax=0;resizeLast=0;collapsible=1;marginBottom=0;whiteSpace=wrap;html=1;" parent="mrzcO0mmfcUNfrwrGDRM-1" vertex="1">
          <mxGeometry x="20" y="40" width="140" height="300" as="geometry" />
        </mxCell>
        <mxCell id="mrzcO0mmfcUNfrwrGDRM-3" value="进程ID" style="text;align=left;verticalAlign=middle;spacingLeft=4;spacingRight=4;overflow=hidden;points=[[0,0.5],[1,0.5]];portConstraint=eastwest;rotatable=0;whiteSpace=wrap;html=1;" parent="mrzcO0mmfcUNfrwrGDRM-2" vertex="1">
          <mxGeometry y="30" width="140" height="30" as="geometry" />
        </mxCell>
        <mxCell id="mrzcO0mmfcUNfrwrGDRM-4" value="进程名" style="text;strokeColor=#d79b00;fillColor=#ffe6cc;align=left;verticalAlign=middle;spacingLeft=4;spacingRight=4;overflow=hidden;points=[[0,0.5],[1,0.5]];portConstraint=eastwest;rotatable=0;whiteSpace=wrap;html=1;" parent="mrzcO0mmfcUNfrwrGDRM-2" vertex="1">
          <mxGeometry y="60" width="140" height="30" as="geometry" />
        </mxCell>
        <mxCell id="mrzcO0mmfcUNfrwrGDRM-5" value="运行时间" style="text;strokeColor=#d79b00;fillColor=#ffe6cc;align=left;verticalAlign=middle;spacingLeft=4;spacingRight=4;overflow=hidden;points=[[0,0.5],[1,0.5]];portConstraint=eastwest;rotatable=0;whiteSpace=wrap;html=1;" parent="mrzcO0mmfcUNfrwrGDRM-2" vertex="1">
          <mxGeometry y="90" width="140" height="30" as="geometry" />
        </mxCell>
        <mxCell id="mrzcO0mmfcUNfrwrGDRM-6" value="优先级" style="text;strokeColor=#d79b00;fillColor=#ffe6cc;align=left;verticalAlign=middle;spacingLeft=4;spacingRight=4;overflow=hidden;points=[[0,0.5],[1,0.5]];portConstraint=eastwest;rotatable=0;whiteSpace=wrap;html=1;" parent="mrzcO0mmfcUNfrwrGDRM-2" vertex="1">
          <mxGeometry y="120" width="140" height="30" as="geometry" />
        </mxCell>
        <mxCell id="mrzcO0mmfcUNfrwrGDRM-7" value="到达时间" style="text;strokeColor=none;fillColor=none;align=left;verticalAlign=middle;spacingLeft=4;spacingRight=4;overflow=hidden;points=[[0,0.5],[1,0.5]];portConstraint=eastwest;rotatable=0;whiteSpace=wrap;html=1;" parent="mrzcO0mmfcUNfrwrGDRM-2" vertex="1">
          <mxGeometry y="150" width="140" height="30" as="geometry" />
        </mxCell>
        <mxCell id="mrzcO0mmfcUNfrwrGDRM-8" value="运行状态" style="text;strokeColor=none;fillColor=none;align=left;verticalAlign=middle;spacingLeft=4;spacingRight=4;overflow=hidden;points=[[0,0.5],[1,0.5]];portConstraint=eastwest;rotatable=0;whiteSpace=wrap;html=1;" parent="mrzcO0mmfcUNfrwrGDRM-2" vertex="1">
          <mxGeometry y="180" width="140" height="30" as="geometry" />
        </mxCell>
        <mxCell id="mrzcO0mmfcUNfrwrGDRM-9" value="完成时间" style="text;strokeColor=none;fillColor=none;align=left;verticalAlign=middle;spacingLeft=4;spacingRight=4;overflow=hidden;points=[[0,0.5],[1,0.5]];portConstraint=eastwest;rotatable=0;whiteSpace=wrap;html=1;" parent="mrzcO0mmfcUNfrwrGDRM-2" vertex="1">
          <mxGeometry y="210" width="140" height="30" as="geometry" />
        </mxCell>
        <mxCell id="mrzcO0mmfcUNfrwrGDRM-10" value="周转时间" style="text;strokeColor=none;fillColor=none;align=left;verticalAlign=middle;spacingLeft=4;spacingRight=4;overflow=hidden;points=[[0,0.5],[1,0.5]];portConstraint=eastwest;rotatable=0;whiteSpace=wrap;html=1;" parent="mrzcO0mmfcUNfrwrGDRM-2" vertex="1">
          <mxGeometry y="240" width="140" height="30" as="geometry" />
        </mxCell>
        <mxCell id="mrzcO0mmfcUNfrwrGDRM-11" value="带权周转时间" style="text;strokeColor=none;fillColor=none;align=left;verticalAlign=middle;spacingLeft=4;spacingRight=4;overflow=hidden;points=[[0,0.5],[1,0.5]];portConstraint=eastwest;rotatable=0;whiteSpace=wrap;html=1;" parent="mrzcO0mmfcUNfrwrGDRM-2" vertex="1">
          <mxGeometry y="270" width="140" height="30" as="geometry" />
        </mxCell>
        <mxCell id="mrzcO0mmfcUNfrwrGDRM-12" value="方法" style="swimlane;fontStyle=0;childLayout=stackLayout;horizontal=1;startSize=30;horizontalStack=0;resizeParent=1;resizeParentMax=0;resizeLast=0;collapsible=1;marginBottom=0;whiteSpace=wrap;html=1;" parent="mrzcO0mmfcUNfrwrGDRM-1" vertex="1">
          <mxGeometry x="20" y="360" width="140" height="120" as="geometry" />
        </mxCell>
        <mxCell id="mrzcO0mmfcUNfrwrGDRM-13" value="创建进程" style="text;strokeColor=none;fillColor=none;align=left;verticalAlign=middle;spacingLeft=4;spacingRight=4;overflow=hidden;points=[[0,0.5],[1,0.5]];portConstraint=eastwest;rotatable=0;whiteSpace=wrap;html=1;" parent="mrzcO0mmfcUNfrwrGDRM-12" vertex="1">
          <mxGeometry y="30" width="140" height="30" as="geometry" />
        </mxCell>
        <mxCell id="mrzcO0mmfcUNfrwrGDRM-14" value="运行进程（时间自增）" style="text;strokeColor=none;fillColor=none;align=left;verticalAlign=middle;spacingLeft=4;spacingRight=4;overflow=hidden;points=[[0,0.5],[1,0.5]];portConstraint=eastwest;rotatable=0;whiteSpace=wrap;html=1;" parent="mrzcO0mmfcUNfrwrGDRM-12" vertex="1">
          <mxGeometry y="60" width="140" height="30" as="geometry" />
        </mxCell>
        <mxCell id="mrzcO0mmfcUNfrwrGDRM-15" value="判断运行进程是否完成" style="text;strokeColor=none;fillColor=none;align=left;verticalAlign=middle;spacingLeft=4;spacingRight=4;overflow=hidden;points=[[0,0.5],[1,0.5]];portConstraint=eastwest;rotatable=0;whiteSpace=wrap;html=1;" parent="mrzcO0mmfcUNfrwrGDRM-12" vertex="1">
          <mxGeometry y="90" width="140" height="30" as="geometry" />
        </mxCell>
      </root>
    </mxGraphModel>
  </diagram>
  <diagram id="lky6l98hZd5iJdb17ZID" name="项目系统">
    <mxGraphModel dx="882" dy="499" grid="1" gridSize="10" guides="1" tooltips="1" connect="1" arrows="1" fold="1" page="1" pageScale="1" pageWidth="827" pageHeight="1169" math="0" shadow="0">
      <root>
        <mxCell id="0" />
        <mxCell id="1" parent="0" />
        <mxCell id="5593tiPepWBn13R8s6ix-1" value="项目系统" style="swimlane;whiteSpace=wrap;html=1;" parent="1" vertex="1">
          <mxGeometry x="90" y="10" width="600" height="500" as="geometry" />
        </mxCell>
        <mxCell id="0GqxFLYsP7CwI94CtRjH-1" value="程序队列" style="swimlane;fontStyle=0;childLayout=stackLayout;horizontal=1;startSize=30;horizontalStack=0;resizeParent=1;resizeParentMax=0;resizeLast=0;collapsible=1;marginBottom=0;whiteSpace=wrap;html=1;" parent="5593tiPepWBn13R8s6ix-1" vertex="1">
          <mxGeometry x="30" y="110" width="180" height="150" as="geometry">
            <mxRectangle x="590" y="120" width="90" height="30" as="alternateBounds" />
          </mxGeometry>
        </mxCell>
        <mxCell id="0GqxFLYsP7CwI94CtRjH-2" value="程序 1" style="text;strokeColor=#d6b656;fillColor=#fff2cc;align=left;verticalAlign=middle;spacingLeft=4;spacingRight=4;overflow=hidden;points=[[0,0.5],[1,0.5]];portConstraint=eastwest;rotatable=0;whiteSpace=wrap;html=1;" parent="0GqxFLYsP7CwI94CtRjH-1" vertex="1">
          <mxGeometry y="30" width="180" height="30" as="geometry" />
        </mxCell>
        <mxCell id="0GqxFLYsP7CwI94CtRjH-3" value="程序 2" style="text;strokeColor=#b85450;fillColor=#f8cecc;align=left;verticalAlign=middle;spacingLeft=4;spacingRight=4;overflow=hidden;points=[[0,0.5],[1,0.5]];portConstraint=eastwest;rotatable=0;whiteSpace=wrap;html=1;" parent="0GqxFLYsP7CwI94CtRjH-1" vertex="1">
          <mxGeometry y="60" width="180" height="30" as="geometry" />
        </mxCell>
        <mxCell id="0GqxFLYsP7CwI94CtRjH-4" value="程序 3" style="text;strokeColor=#9673a6;fillColor=#e1d5e7;align=left;verticalAlign=middle;spacingLeft=4;spacingRight=4;overflow=hidden;points=[[0,0.5],[1,0.5]];portConstraint=eastwest;rotatable=0;whiteSpace=wrap;html=1;" parent="0GqxFLYsP7CwI94CtRjH-1" vertex="1">
          <mxGeometry y="90" width="180" height="30" as="geometry" />
        </mxCell>
        <mxCell id="0GqxFLYsP7CwI94CtRjH-5" value="……" style="text;strokeColor=none;fillColor=none;align=left;verticalAlign=middle;spacingLeft=4;spacingRight=4;overflow=hidden;points=[[0,0.5],[1,0.5]];portConstraint=eastwest;rotatable=0;whiteSpace=wrap;html=1;" parent="0GqxFLYsP7CwI94CtRjH-1" vertex="1">
          <mxGeometry y="120" width="180" height="30" as="geometry" />
        </mxCell>
        <mxCell id="0GqxFLYsP7CwI94CtRjH-6" value="进程系统" style="shape=module;align=left;spacingLeft=20;align=center;verticalAlign=top;whiteSpace=wrap;html=1;" parent="5593tiPepWBn13R8s6ix-1" vertex="1">
          <mxGeometry x="480" y="330" width="100" height="50" as="geometry" />
        </mxCell>
        <mxCell id="0GqxFLYsP7CwI94CtRjH-7" value="可以创建自定义程序" style="rounded=1;whiteSpace=wrap;html=1;" parent="5593tiPepWBn13R8s6ix-1" vertex="1">
          <mxGeometry x="40" y="40" width="120" height="30" as="geometry" />
        </mxCell>
        <mxCell id="ZK9b3nLKG0GAO55OKBwn-1" value="计划运行队列" style="swimlane;fontStyle=0;childLayout=stackLayout;horizontal=1;startSize=30;horizontalStack=0;resizeParent=1;resizeParentMax=0;resizeLast=0;collapsible=1;marginBottom=0;whiteSpace=wrap;html=1;" parent="5593tiPepWBn13R8s6ix-1" vertex="1">
          <mxGeometry x="310" y="110" width="120" height="150" as="geometry">
            <mxRectangle x="310" y="120" width="90" height="30" as="alternateBounds" />
          </mxGeometry>
        </mxCell>
        <mxCell id="ZK9b3nLKG0GAO55OKBwn-2" value="程序 1" style="text;strokeColor=#d6b656;fillColor=#fff2cc;align=left;verticalAlign=middle;spacingLeft=4;spacingRight=4;overflow=hidden;points=[[0,0.5],[1,0.5]];portConstraint=eastwest;rotatable=0;whiteSpace=wrap;html=1;" parent="ZK9b3nLKG0GAO55OKBwn-1" vertex="1">
          <mxGeometry y="30" width="120" height="30" as="geometry" />
        </mxCell>
        <mxCell id="ZK9b3nLKG0GAO55OKBwn-3" value="程序 2" style="text;strokeColor=#b85450;fillColor=#f8cecc;align=left;verticalAlign=middle;spacingLeft=4;spacingRight=4;overflow=hidden;points=[[0,0.5],[1,0.5]];portConstraint=eastwest;rotatable=0;whiteSpace=wrap;html=1;" parent="ZK9b3nLKG0GAO55OKBwn-1" vertex="1">
          <mxGeometry y="60" width="120" height="30" as="geometry" />
        </mxCell>
        <mxCell id="ZK9b3nLKG0GAO55OKBwn-4" value="程序 3" style="text;strokeColor=#9673a6;fillColor=#e1d5e7;align=left;verticalAlign=middle;spacingLeft=4;spacingRight=4;overflow=hidden;points=[[0,0.5],[1,0.5]];portConstraint=eastwest;rotatable=0;whiteSpace=wrap;html=1;" parent="ZK9b3nLKG0GAO55OKBwn-1" vertex="1">
          <mxGeometry y="90" width="120" height="30" as="geometry" />
        </mxCell>
        <mxCell id="ZK9b3nLKG0GAO55OKBwn-5" value="……" style="text;strokeColor=none;fillColor=none;align=left;verticalAlign=middle;spacingLeft=4;spacingRight=4;overflow=hidden;points=[[0,0.5],[1,0.5]];portConstraint=eastwest;rotatable=0;whiteSpace=wrap;html=1;" parent="ZK9b3nLKG0GAO55OKBwn-1" vertex="1">
          <mxGeometry y="120" width="120" height="30" as="geometry" />
        </mxCell>
        <mxCell id="ZK9b3nLKG0GAO55OKBwn-8" value="" style="shape=flexArrow;endArrow=classic;html=1;rounded=0;width=34.642857142857146;endSize=12.975;" parent="5593tiPepWBn13R8s6ix-1" edge="1">
          <mxGeometry width="50" height="50" relative="1" as="geometry">
            <mxPoint x="220" y="200" as="sourcePoint" />
            <mxPoint x="310" y="200" as="targetPoint" />
          </mxGeometry>
        </mxCell>
        <mxCell id="ZK9b3nLKG0GAO55OKBwn-9" value="&lt;font style=&quot;font-size: 18px;&quot;&gt;插入&lt;/font&gt;" style="edgeLabel;html=1;align=center;verticalAlign=middle;resizable=0;points=[];" parent="ZK9b3nLKG0GAO55OKBwn-8" vertex="1" connectable="0">
          <mxGeometry x="-0.0571" relative="1" as="geometry">
            <mxPoint as="offset" />
          </mxGeometry>
        </mxCell>
        <mxCell id="ZK9b3nLKG0GAO55OKBwn-11" value="实现" style="swimlane;whiteSpace=wrap;html=1;" parent="5593tiPepWBn13R8s6ix-1" vertex="1">
          <mxGeometry x="30" y="300" width="230" height="190" as="geometry" />
        </mxCell>
        <mxCell id="ZK9b3nLKG0GAO55OKBwn-12" value="新建程序种类" style="rounded=0;whiteSpace=wrap;html=1;" parent="ZK9b3nLKG0GAO55OKBwn-11" vertex="1">
          <mxGeometry x="10" y="30" width="120" height="30" as="geometry" />
        </mxCell>
        <mxCell id="ZK9b3nLKG0GAO55OKBwn-13" value="新建运行队列" style="rounded=0;whiteSpace=wrap;html=1;" parent="ZK9b3nLKG0GAO55OKBwn-11" vertex="1">
          <mxGeometry x="10" y="70" width="120" height="30" as="geometry" />
        </mxCell>
        <mxCell id="wJqJtRdQ8HmJHgvgsjek-1" value="删除程序" style="rounded=0;whiteSpace=wrap;html=1;" parent="ZK9b3nLKG0GAO55OKBwn-11" vertex="1">
          <mxGeometry x="10" y="110" width="120" height="30" as="geometry" />
        </mxCell>
        <mxCell id="wJqJtRdQ8HmJHgvgsjek-2" value="删除进程" style="rounded=0;whiteSpace=wrap;html=1;" parent="ZK9b3nLKG0GAO55OKBwn-11" vertex="1">
          <mxGeometry x="10" y="150" width="120" height="30" as="geometry" />
        </mxCell>
        <mxCell id="akAIz-lf0WqoMNAfJNu9-1" value="是否为时间片流转" style="rounded=0;whiteSpace=wrap;html=1;" parent="5593tiPepWBn13R8s6ix-1" vertex="1">
          <mxGeometry x="290" y="365" width="120" height="25" as="geometry" />
        </mxCell>
        <mxCell id="akAIz-lf0WqoMNAfJNu9-3" style="edgeStyle=orthogonalEdgeStyle;rounded=0;orthogonalLoop=1;jettySize=auto;html=1;exitX=0.5;exitY=1;exitDx=0;exitDy=0;entryX=0;entryY=0;entryDx=0;entryDy=15;entryPerimeter=0;" parent="5593tiPepWBn13R8s6ix-1" source="ZK9b3nLKG0GAO55OKBwn-1" target="0GqxFLYsP7CwI94CtRjH-6" edge="1">
          <mxGeometry relative="1" as="geometry" />
        </mxCell>
        <mxCell id="wJqJtRdQ8HmJHgvgsjek-3" value="&lt;font style=&quot;font-size: 18px;&quot;&gt;导入系统&lt;/font&gt;" style="edgeLabel;html=1;align=center;verticalAlign=middle;resizable=0;points=[];" parent="akAIz-lf0WqoMNAfJNu9-3" vertex="1" connectable="0">
          <mxGeometry x="-0.4051" relative="1" as="geometry">
            <mxPoint as="offset" />
          </mxGeometry>
        </mxCell>
        <mxCell id="akAIz-lf0WqoMNAfJNu9-4" style="edgeStyle=orthogonalEdgeStyle;rounded=0;orthogonalLoop=1;jettySize=auto;html=1;exitX=1;exitY=0.5;exitDx=0;exitDy=0;entryX=0;entryY=0;entryDx=0;entryDy=35;entryPerimeter=0;" parent="5593tiPepWBn13R8s6ix-1" source="akAIz-lf0WqoMNAfJNu9-1" target="0GqxFLYsP7CwI94CtRjH-6" edge="1">
          <mxGeometry relative="1" as="geometry" />
        </mxCell>
      </root>
    </mxGraphModel>
  </diagram>
  <diagram id="rYv-CX5_gOERHH7TKMa2" name="运行逻辑">
    <mxGraphModel dx="882" dy="499" grid="1" gridSize="10" guides="1" tooltips="1" connect="1" arrows="1" fold="1" page="1" pageScale="1" pageWidth="827" pageHeight="1169" math="0" shadow="0">
      <root>
        <mxCell id="0" />
        <mxCell id="1" parent="0" />
      </root>
    </mxGraphModel>
  </diagram>
</mxfile>
